<svg xmlns="http://www.w3.org/2000/svg" xmlns:xlink="http://www.w3.org/1999/xlink" width="500" zoomAndPan="magnify" viewBox="0 0 375 374.999991" height="500" preserveAspectRatio="xMidYMid meet" version="1.0"><defs><clipPath id="id1"><path d="M 49.753906 3.835938 L 325 3.835938 L 325 371.335938 L 49.753906 371.335938 Z M 49.753906 3.835938 " clip-rule="nonzero"/></clipPath></defs><g clip-path="url(#id1)"><path fill="rgb(98.429871%, 96.469116%, 95.289612%)" d="M 117.226562 310.09375 L 124.363281 340.078125 L 124.589844 340.730469 C 127.65625 349.832031 133.519531 357.402344 140.914062 362.722656 C 148.605469 368.203125 157.988281 371.335938 167.925781 371.335938 L 167.957031 371.335938 L 210.28125 371.203125 L 210.933594 371.140625 C 220.542969 370.324219 229.472656 366.539062 236.605469 360.566406 C 243.675781 354.628906 249.019531 346.472656 251.300781 336.882812 L 258.273438 310.09375 Z M 90.480469 43.964844 C 115.46875 18.582031 149.777344 3.835938 187.375 3.835938 C 225.300781 3.835938 259.773438 18.808594 284.761719 43.179688 C 309.621094 67.390625 325.128906 100.996094 325.128906 138.1875 C 325.128906 177.796875 307.273438 213 275.640625 243.472656 L 266.253906 279.492188 L 109.929688 279.492188 L 102.925781 249.964844 C 69.824219 215.382812 51.511719 182.039062 49.785156 144.160156 L 49.753906 143.570312 L 49.785156 142.984375 C 51.023438 103.3125 66.074219 68.792969 90.480469 43.964844 " fill-opacity="1" fill-rule="nonzero"/></g></svg>